<svg width="688" height="378" viewBox="0 0 688 378" fill="none" xmlns="http://www.w3.org/2000/svg">
<path d="M197.991 31.4998C189.591 36.2998 191.824 41.1665 193.991 42.9998C195.991 51.4996 206.991 50.5 207.491 55C207.991 59.5 206.991 58.5 209.491 70.5C218.691 76.1 218.658 79.8333 217.491 81C216.491 83 214.791 88.6 215.991 95C225.491 91.5 220.491 116 220.491 120.5C223.491 122 226.491 126 223.491 129.5C223.491 136.7 224.825 141.833 225.491 143.5C225.825 146.333 227.491 151.4 231.491 149C236.491 146 234.991 139.5 235.491 130.5C235.991 121.5 240.991 120.5 240.491 119.5C239.991 118.5 245.491 112.5 248.991 109C252.491 105.5 254.991 101 257.991 98C260.391 95.6 260.658 98.3333 260.491 100L261.491 116.5C262.991 119.5 266.191 124.5 266.991 120.5C267.991 115.5 270.491 119.5 272.491 114.5C274.091 110.5 277.158 109.167 278.491 109C278.491 107.833 279.791 104.6 284.991 101C285.491 79.5 285.991 84.5 295.991 79C294.391 72.2 302.325 69.5 306.491 69C308.158 65.3333 313.191 58.8 319.991 62C326.791 65.2 326.825 60.6667 325.991 58C325.491 57.6667 323.891 55.8 321.491 51C316.291 52.2 312.658 48.1667 311.491 46V38L304.491 31L305.491 18.5L302.991 17L301.991 5.5C297.825 5.5 288.291 4.6 283.491 1C281.891 13.4 256.491 15.5 243.991 15C240.325 19.4999 231.891 27.6998 227.491 24.4998C223.091 21.2998 220.325 23.1665 219.491 24.4998C220.491 26.3331 215.491 22.4998 214.991 22.9998C202.991 34.9998 208.491 25.4998 197.991 31.4998Z" fill="#FD0054" stroke="black"/>
<path d="M23.52 215C23.072 215 22.848 214.72 22.848 214.16V118.4H1.008C0.448 118.4 0.168 118.12 0.168 117.56L0.336 98.744C0.336 98.296 0.56 98.072 1.008 98.072H64.848C65.408 98.072 65.688 98.296 65.688 98.744V117.56C65.688 118.12 65.464 118.4 65.016 118.4H43.008L43.176 214.16C43.176 214.72 42.952 215 42.504 215H23.52ZM74.6576 215C74.2096 215 73.9856 214.72 73.9856 214.16L74.1536 98.744C74.1536 98.296 74.4336 98.072 74.9936 98.072H93.6416C94.2016 98.072 94.4816 98.296 94.4816 98.744L94.3136 144.44H119.514V98.744C119.514 98.296 119.738 98.072 120.186 98.072H138.834C139.394 98.072 139.674 98.296 139.674 98.744L140.01 214.16C140.01 214.72 139.73 215 139.17 215H120.354C119.794 215 119.514 214.72 119.514 214.16V164.768H94.3136V214.16C94.3136 214.72 94.0896 215 93.6416 215H74.6576ZM154.392 215C153.944 215 153.72 214.72 153.72 214.16L153.888 98.744C153.888 98.296 154.112 98.072 154.56 98.072H208.488C208.936 98.072 209.16 98.352 209.16 98.912V117.728C209.16 118.176 208.936 118.4 208.488 118.4H174.048V144.608H208.488C208.936 144.608 209.16 144.832 209.16 145.28L209.328 164.264C209.328 164.712 209.104 164.936 208.656 164.936H174.048V194.336H208.656C209.104 194.336 209.328 194.616 209.328 195.176V214.328C209.328 214.776 209.104 215 208.656 215H154.392Z" fill="black"/>
<path d="M276.756 216.68C270.484 216.68 264.828 215.224 259.788 212.312C254.86 209.288 250.94 205.2 248.028 200.048C245.228 194.784 243.828 188.904 243.828 182.408V174.68C243.828 174.232 244.052 174.008 244.5 174.008H263.484C263.932 174.008 264.156 174.288 264.156 174.848V182.408C264.156 186.552 265.332 189.912 267.684 192.488C270.036 195.064 273.06 196.352 276.756 196.352C280.116 196.352 283.028 194.952 285.492 192.152C287.956 189.352 289.188 186.104 289.188 182.408V98.912C289.188 98.464 289.412 98.24 289.86 98.24H308.676C309.124 98.24 309.348 98.52 309.348 99.08L309.516 182.408C309.516 188.568 308.004 194.28 304.98 199.544C302.068 204.696 298.148 208.84 293.22 211.976C288.292 215.112 282.804 216.68 276.756 216.68ZM353.292 216.68C347.244 216.68 341.7 215.168 336.66 212.144C331.732 209.008 327.756 204.92 324.732 199.88C321.708 194.728 320.196 189.072 320.196 182.912L320.364 129.656C320.364 123.496 321.82 117.896 324.732 112.856C327.756 107.816 331.788 103.784 336.828 100.76C341.868 97.736 347.356 96.224 353.292 96.224C359.34 96.224 364.828 97.736 369.756 100.76C374.684 103.784 378.604 107.816 381.516 112.856C384.54 117.896 386.052 123.496 386.052 129.656L386.22 182.912C386.22 189.072 384.708 194.728 381.684 199.88C378.772 204.92 374.796 209.008 369.756 212.144C364.828 215.168 359.34 216.68 353.292 216.68ZM353.292 196.352C356.652 196.352 359.564 195.008 362.028 192.32C364.604 189.52 365.892 186.384 365.892 182.912L365.724 129.656C365.724 125.96 364.548 122.824 362.196 120.248C359.844 117.672 356.876 116.384 353.292 116.384C349.82 116.384 346.852 117.672 344.388 120.248C341.924 122.712 340.692 125.848 340.692 129.656V182.912C340.692 186.608 341.924 189.8 344.388 192.488C346.852 195.064 349.82 196.352 353.292 196.352ZM399.665 215C399.217 215 398.993 214.72 398.993 214.16L399.329 98.744C399.329 98.296 399.553 98.072 400.001 98.072H433.937C439.985 98.072 445.529 99.584 450.569 102.608C455.721 105.52 459.809 109.496 462.833 114.536C465.857 119.464 467.369 125.064 467.369 131.336C467.369 135.48 466.753 139.232 465.521 142.592C464.289 145.84 462.833 148.64 461.153 150.992C459.473 153.232 457.961 154.912 456.617 156.032C462.665 162.752 465.689 170.648 465.689 179.72L465.857 214.16C465.857 214.72 465.577 215 465.017 215H446.033C445.585 215 445.361 214.832 445.361 214.496V179.72C445.361 175.688 443.905 172.216 440.993 169.304C438.193 166.28 434.721 164.768 430.577 164.768H419.489L419.321 214.16C419.321 214.72 419.097 215 418.649 215H399.665ZM419.489 144.608H433.937C437.409 144.608 440.489 143.32 443.177 140.744C445.865 138.168 447.209 135.032 447.209 131.336C447.209 127.752 445.865 124.672 443.177 122.096C440.601 119.52 437.521 118.232 433.937 118.232H419.489V144.608ZM480.712 215C480.264 215 480.04 214.72 480.04 214.16L480.208 98.744C480.208 98.296 480.488 98.072 481.048 98.072H499.696C500.256 98.072 500.536 98.296 500.536 98.744L500.368 144.44H525.568V98.744C525.568 98.296 525.792 98.072 526.24 98.072H544.888C545.448 98.072 545.728 98.296 545.728 98.744L546.064 214.16C546.064 214.72 545.784 215 545.224 215H526.408C525.848 215 525.568 214.72 525.568 214.16V164.768H500.368V214.16C500.368 214.72 500.144 215 499.696 215H480.712ZM554.063 214.16L574.895 98.744C575.007 98.296 575.287 98.072 575.735 98.072H600.095C600.543 98.072 600.823 98.296 600.935 98.744L620.927 214.16C621.039 214.72 620.815 215 620.255 215H601.607C601.159 215 600.879 214.72 600.767 214.16L598.919 201.896H576.071L574.223 214.16C574.111 214.72 573.831 215 573.383 215H554.735C554.287 215 554.063 214.72 554.063 214.16ZM579.431 183.92H595.559L588.671 136.712L587.663 130.496L586.991 136.712L579.431 183.92ZM640.231 215C639.783 215 639.559 214.72 639.559 214.16V118.4H617.719C617.159 118.4 616.879 118.12 616.879 117.56L617.047 98.744C617.047 98.296 617.271 98.072 617.719 98.072H681.559C682.119 98.072 682.399 98.296 682.399 98.744V117.56C682.399 118.12 682.175 118.4 681.727 118.4H659.719L659.887 214.16C659.887 214.72 659.663 215 659.215 215H640.231Z" fill="#FD0054"/>
<path d="M6.204 336C5.828 336 5.64 335.765 5.64 335.295L5.922 238.428C5.922 238.052 6.11 237.864 6.486 237.864H23.688C24.064 237.864 24.393 238.052 24.675 238.428L37.506 257.04L50.337 238.428C50.619 238.052 50.948 237.864 51.324 237.864H68.667C69.043 237.864 69.231 238.052 69.231 238.428L69.513 335.295C69.513 335.765 69.325 336 68.949 336H53.016C52.64 336 52.452 335.765 52.452 335.295L52.311 263.385L37.506 284.817L22.842 263.385L22.701 335.295C22.701 335.765 22.513 336 22.137 336H6.204ZM76.5784 335.295L94.0624 238.428C94.1564 238.052 94.3914 237.864 94.7674 237.864H115.212C115.588 237.864 115.823 238.052 115.917 238.428L132.696 335.295C132.79 335.765 132.602 336 132.132 336H116.481C116.105 336 115.87 335.765 115.776 335.295L114.225 325.002H95.0494L93.4984 335.295C93.4044 335.765 93.1694 336 92.7934 336H77.1424C76.7664 336 76.5784 335.765 76.5784 335.295ZM97.8694 309.915H111.405L105.624 270.294L104.778 265.077L104.214 270.294L97.8694 309.915ZM142.109 336C141.733 336 141.545 335.765 141.545 335.295L141.827 238.428C141.827 238.052 142.015 237.864 142.391 237.864H170.873C175.949 237.864 180.602 239.133 184.832 241.671C189.156 244.115 192.587 247.452 195.125 251.682C197.663 255.818 198.932 260.518 198.932 265.782C198.932 269.26 198.415 272.409 197.381 275.229C196.347 277.955 195.125 280.305 193.715 282.279C192.305 284.159 191.036 285.569 189.908 286.509C194.984 292.149 197.522 298.776 197.522 306.39L197.663 335.295C197.663 335.765 197.428 336 196.958 336H181.025C180.649 336 180.461 335.859 180.461 335.577V306.39C180.461 303.006 179.239 300.092 176.795 297.648C174.445 295.11 171.531 293.841 168.053 293.841H158.747L158.606 335.295C158.606 335.765 158.418 336 158.042 336H142.109ZM158.747 276.921H170.873C173.787 276.921 176.372 275.84 178.628 273.678C180.884 271.516 182.012 268.884 182.012 265.782C182.012 262.774 180.884 260.189 178.628 258.027C176.466 255.865 173.881 254.784 170.873 254.784H158.747V276.921ZM210.131 336C209.755 336 209.567 335.765 209.567 335.295L209.849 238.569C209.849 238.099 210.037 237.864 210.413 237.864H226.205C226.581 237.864 226.769 238.099 226.769 238.569V271.986L248.906 238.428C249.188 238.052 249.517 237.864 249.893 237.864H266.108C266.484 237.864 266.578 238.052 266.39 238.428L241.997 277.344L269.351 335.436C269.539 335.812 269.304 336 268.646 336H251.444C250.974 336 250.692 335.812 250.598 335.436L231.563 293.982L226.628 301.737V335.295C226.628 335.765 226.44 336 226.064 336H210.131ZM276.225 336C275.849 336 275.661 335.765 275.661 335.295L275.802 238.428C275.802 238.052 275.99 237.864 276.366 237.864H321.627C322.003 237.864 322.191 238.099 322.191 238.569V254.361C322.191 254.737 322.003 254.925 321.627 254.925H292.722V276.921H321.627C322.003 276.921 322.191 277.109 322.191 277.485L322.332 293.418C322.332 293.794 322.144 293.982 321.768 293.982H292.722V318.657H321.768C322.144 318.657 322.332 318.892 322.332 319.362V335.436C322.332 335.812 322.144 336 321.768 336H276.225ZM348.969 336C348.593 336 348.405 335.765 348.405 335.295V254.925H330.075C329.605 254.925 329.37 254.69 329.37 254.22L329.511 238.428C329.511 238.052 329.699 237.864 330.075 237.864H383.655C384.125 237.864 384.36 238.052 384.36 238.428V254.22C384.36 254.69 384.172 254.925 383.796 254.925H365.325L365.466 335.295C365.466 335.765 365.278 336 364.902 336H348.969ZM392.03 336C391.56 336 391.325 335.765 391.325 335.295L391.607 238.428C391.607 238.052 391.795 237.864 392.171 237.864H419.243C427.891 237.864 434.706 240.496 439.688 245.76C444.764 251.024 447.302 258.168 447.302 267.192C447.302 273.866 445.986 279.647 443.354 284.535C440.722 289.423 437.291 293.183 433.061 295.815C428.831 298.447 424.225 299.763 419.243 299.763H408.527V335.295C408.527 335.765 408.292 336 407.822 336H392.03ZM408.527 282.702H419.243C422.251 282.702 424.836 281.292 426.998 278.472C429.254 275.558 430.382 271.798 430.382 267.192C430.382 263.526 429.395 260.518 427.421 258.168C425.447 255.818 422.721 254.643 419.243 254.643L408.527 254.784V282.702ZM457.432 336C457.056 336 456.868 335.765 456.868 335.295L457.009 238.569C457.009 238.099 457.244 237.864 457.714 237.864H473.365C473.835 237.864 474.07 238.099 474.07 238.569L473.929 318.657H502.975C503.445 318.657 503.68 318.892 503.68 319.362V335.295C503.68 335.765 503.445 336 502.975 336H457.432ZM508.116 335.295L525.6 238.428C525.694 238.052 525.929 237.864 526.305 237.864H546.75C547.126 237.864 547.361 238.052 547.455 238.428L564.234 335.295C564.328 335.765 564.14 336 563.67 336H548.019C547.643 336 547.408 335.765 547.314 335.295L545.763 325.002H526.587L525.036 335.295C524.942 335.765 524.707 336 524.331 336H508.68C508.304 336 508.116 335.765 508.116 335.295ZM529.407 309.915H542.943L537.162 270.294L536.316 265.077L535.752 270.294L529.407 309.915ZM595.997 337.41C590.827 337.41 586.127 336.141 581.897 333.603C577.761 330.971 574.471 327.493 572.027 323.169C569.583 318.845 568.361 314.004 568.361 308.646L568.502 264.654C568.502 259.484 569.677 254.784 572.027 250.554C574.471 246.23 577.761 242.799 581.897 240.261C586.127 237.629 590.827 236.313 595.997 236.313C601.167 236.313 605.82 237.582 609.956 240.12C614.092 242.658 617.382 246.089 619.826 250.413C622.27 254.643 623.492 259.39 623.492 264.654V271.14C623.492 271.516 623.304 271.704 622.928 271.704H607.136C606.76 271.704 606.572 271.516 606.572 271.14V264.654C606.572 261.552 605.538 258.873 603.47 256.617C601.496 254.361 599.005 253.233 595.997 253.233C592.613 253.233 590.028 254.408 588.242 256.758C586.456 259.014 585.563 261.646 585.563 264.654V308.646C585.563 312.124 586.55 314.944 588.524 317.106C590.592 319.268 593.083 320.349 595.997 320.349C599.005 320.349 601.496 319.174 603.47 316.824C605.538 314.38 606.572 311.654 606.572 308.646V302.16C606.572 301.784 606.76 301.596 607.136 301.596H623.069C623.445 301.596 623.633 301.784 623.633 302.16V308.646C623.633 314.004 622.364 318.845 619.826 323.169C617.382 327.493 614.092 330.971 609.956 333.603C605.82 336.141 601.167 337.41 595.997 337.41ZM634.508 336C634.132 336 633.944 335.765 633.944 335.295L634.085 238.428C634.085 238.052 634.273 237.864 634.649 237.864H679.91C680.286 237.864 680.474 238.099 680.474 238.569V254.361C680.474 254.737 680.286 254.925 679.91 254.925H651.005V276.921H679.91C680.286 276.921 680.474 277.109 680.474 277.485L680.615 293.418C680.615 293.794 680.427 293.982 680.051 293.982H651.005V318.657H680.051C680.427 318.657 680.615 318.892 680.615 319.362V335.436C680.615 335.812 680.427 336 680.051 336H634.508Z" fill="black"/>
</svg>
